<svg width="1440" height="600" viewBox="0 0 1440 600" fill="none" xmlns="http://www.w3.org/2000/svg">
  <path d="M-114 195.258C17.1508 190.866 154.502 73.6454 285.653 33.7644C416.804 -6.11649 548.904 -6.99791 680.055 33.7644C811.205 74.5267 942.356 156.534 1073.51 156.534C1204.66 156.534 1335.81 74.5267 1466.96 68.0524C1598.11 61.5781 1729.26 130.656 1794.83 165.195L1794.83 659.573L-114 659.573L-114 195.258Z" fill="#3498db" fill-opacity="0.2"/>
  <path d="M-112.002 227.333C19.1485 222.941 156.5 105.72 287.651 65.8392C418.802 25.9582 550.902 25.0768 682.053 65.8392C813.203 106.602 944.354 188.609 1075.5 188.609C1206.65 188.609 1337.81 106.602 1468.96 100.127C1600.11 93.6529 1731.26 162.731 1796.83 197.27L1796.83 691.648L-112.002 691.648L-112.002 227.333Z" fill="#2ecc71" fill-opacity="0.15"/>
  <circle cx="197" cy="143" r="50" fill="#3498db" fill-opacity="0.1"/>
  <circle cx="578" cy="338" r="70" fill="#2ecc71" fill-opacity="0.1"/>
  <circle cx="923" cy="241" r="40" fill="#f39c12" fill-opacity="0.1"/>
  <circle cx="1210" cy="180" r="60" fill="#3498db" fill-opacity="0.1"/>
</svg> 